# Blender 4.2.2 LTS
# www.blender.org
mtllib TrishulTutorialMainPillar.mtl
o mainPillar
v -23.997524 -146.663727 -36.291874 0.0000 0.0000 0.0000
v -24.415560 147.392548 -36.897259 0.0000 0.0000 0.0000
v 15.604465 -94.871193 -32.518795 0.2996 0.2996 0.2996
v 13.940721 -48.258720 -19.519548 0.7788 0.7788 0.7788
v 17.479053 -140.168533 -36.373089 0.0000 0.0000 0.0000
v 20.494801 150.889587 -42.578175 0.0000 0.0000 0.0000
v 5.876012 -4.093047 -29.079401 0.0000 0.0000 0.0000
v 5.876010 13.845899 -28.910355 0.1602 0.1602 0.1602
v 41.681023 -143.241928 -4.043900 0.0000 0.0000 0.0000
v 41.883522 145.153931 -4.205990 0.0000 0.0000 0.0000
v 13.928831 64.090324 -28.644934 1.0000 1.0000 1.0000
v 13.713515 97.154007 -35.603733 0.6947 0.6947 0.6947
v 22.288231 -138.032837 30.736309 0.0000 0.0000 0.0000
v 28.421635 153.058334 39.618309 0.0000 0.0000 0.0000
v -22.074497 92.574028 -33.507038 0.7626 0.7626 0.7626
v -17.182940 63.040802 -26.340134 1.0000 1.0000 1.0000
v -19.274418 -151.959518 41.122726 0.0000 0.0000 0.0000
v -18.532299 148.520615 39.509762 0.0000 0.0000 0.0000
v -6.278709 14.464482 -25.104383 0.2795 0.2795 0.2795
v -9.901172 -3.842593 -30.853832 0.0000 0.0000 0.0000
v -39.897121 -142.123886 2.557979 0.0000 0.0000 0.0000
v -48.040649 154.206253 3.404094 0.0000 0.0000 0.0000
v -9.817158 -46.629669 -15.727620 0.9167 0.9167 0.9167
v -18.389338 -102.812889 -28.170416 0.3762 0.3762 0.3762
v 31.044956 110.234726 -5.986647 0.5547 0.5548 0.5548
v 31.866932 63.355431 -3.158602 1.0000 1.0000 1.0000
v 30.643776 22.627295 -2.560975 0.8429 0.8429 0.8429
v 31.932938 -15.692020 -2.589781 1.0000 1.0000 1.0000
v 30.538433 -49.772072 1.216200 0.8004 0.8004 0.8004
v 34.423458 -100.389603 -3.469438 0.2074 0.2074 0.2074
v 18.483280 101.504753 25.226240 0.7121 0.7121 0.7121
v 19.092518 62.558342 26.108511 0.9959 0.9959 0.9959
v 21.661089 29.912647 32.861599 0.9707 0.9707 0.9707
v 18.407249 -16.341858 25.643778 0.9996 0.9996 0.9996
v 16.793451 -47.663475 22.819065 0.8761 0.8761 0.8761
v 19.967602 -100.153442 27.375740 0.2307 0.2307 0.2307
v -15.915934 104.308571 27.196903 0.6947 0.6947 0.6947
v -11.957261 66.921242 25.569668 1.0000 1.0000 1.0000
v -13.406010 29.921062 29.088949 0.9999 0.9999 0.9999
v -12.619844 -14.873530 28.099459 0.9610 0.9610 0.9610
v -7.870757 -48.858932 26.700165 0.9999 0.9999 0.9999
v -13.187608 -106.125488 28.436438 0.3409 0.3409 0.3409
v -36.082569 99.905350 -0.776301 0.6947 0.6947 0.6947
v -29.099503 66.121773 1.670846 0.9992 0.9992 0.9992
v -31.840916 30.716110 2.538085 1.0000 1.0000 1.0000
v -31.583679 -15.956996 2.440598 1.0000 1.0000 1.0000
v -24.667244 -50.664680 5.812999 0.9703 0.9703 0.9703
v -33.602764 -98.737526 2.031539 0.3614 0.3614 0.3614
v 13.830902 47.610817 -28.042706 0.9999 0.9999 0.9999
v 14.352505 37.484001 -28.928957 0.8899 0.8899 0.8899
v -16.594347 37.580902 -25.142799 0.8975 0.8975 0.8975
v -16.183651 49.790695 -24.752329 1.0000 1.0000 1.0000
v 29.647568 49.464912 -3.070055 0.9917 0.9917 0.9917
v 28.899143 39.733841 -3.146696 1.0000 1.0000 1.0000
v 17.724749 46.680832 24.127796 0.9997 0.9997 0.9997
v 16.052748 38.812263 21.681490 0.9975 0.9975 0.9975
v -11.929837 49.484970 25.636423 0.9999 0.9999 0.9999
v -12.265748 41.895409 25.844553 0.9993 0.9993 0.9993
v -27.591324 51.985909 1.562122 0.9994 0.9994 0.9994
v -26.186199 37.841980 1.446026 0.9997 0.9997 0.9997
v -2.404942 -146.042419 -37.459690 0.0000 0.0000 0.0000
v -2.496087 146.822433 -38.586075 0.0000 0.0000 0.0000
v -3.858603 96.736641 -34.937019 0.6760 0.6760 0.6760
v -1.643118 64.967743 -28.045774 1.0000 1.0000 1.0000
v -1.496662 18.667467 -26.228661 0.3169 0.3169 0.3169
v -1.977029 -3.842595 -30.060379 0.0000 0.0000 0.0000
v 1.372216 -50.455200 -21.444599 0.2982 0.2982 0.2982
v -1.833275 -98.810097 -30.395578 0.0000 0.0000 0.0000
v -1.636328 55.202797 -27.961836 1.0000 1.0000 1.0000
v -1.067817 40.417908 -30.882645 0.9468 0.9468 0.9468
v 13.935506 25.426783 -28.241404 0.6628 0.6628 0.6628
v 13.884339 -13.945252 -27.926535 0.6134 0.6134 0.6134
v -17.722301 -15.543302 -26.660091 0.6112 0.6112 0.6112
v -15.545033 17.469578 -23.355366 0.5451 0.5451 0.5451
v -1.431947 21.095638 -27.173222 0.4877 0.4877 0.4877
v -1.718931 -17.369175 -29.076181 0.0000 0.0000 0.0000
vn -0.5790 0.0398 -0.8144
vn -0.5359 -0.1033 -0.8379
vn 0.4584 0.1676 -0.8728
vn 0.5237 0.0060 -0.8519
vn 0.4498 -0.0025 -0.8931
vn 0.3864 -0.1670 -0.9071
vn 0.1056 -0.0290 -0.9940
vn -0.0201 0.0348 -0.9992
vn 0.9975 -0.0006 -0.0711
vn 0.9591 -0.2543 -0.1241
vn 0.4918 -0.0949 -0.8655
vn 0.4696 -0.1527 -0.8696
vn 0.6077 0.0264 0.7937
vn 0.5558 -0.3269 0.7643
vn -0.5518 -0.1727 -0.8159
vn -0.5876 -0.1732 -0.7904
vn -0.3990 0.0602 0.9150
vn -0.4452 -0.2679 0.8544
vn -0.3007 0.0102 -0.9537
vn -0.2494 0.0074 -0.9684
vn -0.9972 0.0496 0.0553
vn -0.9824 -0.1852 0.0237
vn -0.6305 -0.0180 -0.7760
vn -0.5879 0.2112 -0.7809
vn 0.9890 -0.1130 -0.0950
vn 0.9934 -0.0621 -0.0968
vn 0.9786 0.0522 -0.1991
vn 0.9950 -0.0536 -0.0842
vn 0.9998 0.0130 -0.0159
vn 0.9913 0.1263 -0.0359
vn 0.5650 -0.1168 0.8168
vn 0.5370 -0.0458 0.8423
vn 0.6218 0.1158 0.7746
vn 0.5712 -0.0675 0.8180
vn 0.5547 0.0064 0.8320
vn 0.5674 0.1135 0.8156
vn -0.4262 -0.1508 0.8920
vn -0.4385 -0.0610 0.8967
vn -0.5079 0.1205 0.8529
vn -0.4254 -0.0773 0.9017
vn -0.3727 -0.0059 0.9279
vn -0.3901 0.1424 0.9097
vn -0.9760 -0.1860 0.1130
vn -0.9786 -0.1287 0.1604
vn -0.9940 0.1051 -0.0307
vn -0.9888 -0.0861 0.1220
vn -0.9817 -0.0141 0.1900
vn -0.9752 0.1897 0.1138
vn 0.5163 0.0129 -0.8563
vn 0.5685 0.0124 -0.8226
vn -0.6787 0.0146 -0.7343
vn -0.6575 -0.0289 -0.7529
vn 0.9871 -0.0985 -0.1264
vn 0.9788 0.0268 -0.2029
vn 0.5282 -0.1499 0.8358
vn 0.6112 0.0616 0.7891
vn -0.4854 -0.0797 0.8707
vn -0.5276 0.1016 0.8434
vn -0.9928 -0.0588 0.1046
vn -0.9974 0.0709 -0.0142
vn -0.0734 0.0177 -0.9971
vn -0.0871 -0.0801 -0.9930
vn -0.0691 -0.1397 -0.9878
vn -0.0679 -0.1219 -0.9902
vn -0.1724 -0.0359 -0.9844
vn 0.0194 -0.1103 -0.9937
vn -0.1219 -0.0084 -0.9925
vn -0.1183 0.1799 -0.9766
vn -0.0973 0.0354 -0.9946
vn -0.1185 -0.0020 -0.9930
vn 0.3998 -0.0052 -0.9166
vn 0.4399 -0.0737 -0.8950
vn -0.5760 -0.0900 -0.8125
vn -0.6015 0.0082 -0.7988
vn -0.1484 -0.0872 -0.9851
vn -0.0165 -0.1775 -0.9840
vt 0.099137 0.583398
vt 0.099724 0.688243
vt 0.067416 0.687257
vt 0.073928 0.583139
vt 0.334731 0.380444
vt 0.322048 0.498024
vt 0.293550 0.495764
vt 0.291563 0.390549
vt 0.092534 0.786168
vt 0.070622 0.790216
vt 0.153107 0.540476
vt 0.151798 0.596950
vt 0.102518 0.537464
vt 0.112188 0.182533
vt 0.103909 0.279864
vt 0.055188 0.277432
vt 0.091970 0.175337
vt 0.194363 0.535586
vt 0.192035 0.586928
vt 0.100407 0.391517
vt 0.071420 0.389814
vt 0.089307 0.492313
vt 0.055188 0.495465
vt 0.311530 0.546904
vt 0.322579 0.599239
vt 0.284551 0.589828
vt 0.285277 0.540806
vt 0.252872 0.595462
vt 0.258813 0.543228
vt 0.581279 0.762698
vt 0.493770 0.722074
vt 0.417495 0.676199
vt 0.390055 0.498102
vt 0.539316 0.401621
vt 0.725284 0.447565
vt 0.725284 0.642886
vt 0.072702 0.540622
vt 0.262928 0.493802
vt 0.258695 0.382553
vt 0.240650 0.544265
vt 0.232146 0.592218
vt 0.222919 0.590543
vt 0.223248 0.539289
vt 0.217787 0.382527
vt 0.228891 0.491122
vt 0.201326 0.491309
vt 0.187054 0.389286
vt 0.153049 0.489195
vt 0.149273 0.379637
vt 0.315356 0.265897
vt 0.271783 0.278330
vt 0.241321 0.272710
vt 0.235536 0.384725
vt 0.243705 0.493060
vt 0.207355 0.274174
vt 0.172501 0.278186
vt 0.145560 0.268538
vt 0.307479 0.141386
vt 0.262200 0.171346
vt 0.242345 0.169510
vt 0.222554 0.274436
vt 0.187337 0.163448
vt 0.155080 0.181699
vt 0.138018 0.187377
vt 0.300035 0.727450
vt 0.274439 0.858614
vt 0.231824 0.817037
vt 0.262181 0.711611
vt 0.205876 0.813953
vt 0.226929 0.712570
vt 0.222509 0.176985
vt 0.193322 0.706731
vt 0.155811 0.817546
vt 0.135037 0.793112
vt 0.163116 0.698750
vt 0.119156 0.784896
vt 0.135598 0.704014
vt 0.207712 0.707628
vt 0.185988 0.800746
vt 0.215078 0.709680
vt 0.240381 0.593896
vt 0.193804 0.807115
vt 0.227950 0.273418
vt 0.231537 0.172919
vt 0.247369 0.383594
vt 0.251795 0.493168
vt 0.253010 0.542693
vt 0.200850 0.561962
vt 0.212651 0.561754
vt 0.221493 0.523911
vt 0.211023 0.518697
vt 0.220768 0.539287
vt 0.204246 0.538539
s 1
usemtl pillar
f 3/1/3 30/2/30 9/3/9 5/4/5
f 22/5/22 2/6/2 15/7/15 43/8/43
f 30/2/30 36/9/36 13/10/13 9/3/9
f 67/11/67 4/12/4 3/1/3 68/13/68
f 36/14/36 42/15/42 17/16/17 13/17/13
f 76/18/76 72/19/72 4/12/4 67/11/67
f 42/15/42 48/20/48 21/21/21 17/16/17
f 48/20/48 24/22/24 1/23/1 21/21/21
f 62/24/62 6/25/6 12/26/12 63/27/63
f 63/27/63 12/26/12 11/28/11 64/29/64
f 1/30/1 61/31/61 5/32/5 9/33/9 13/34/13 17/35/17 21/36/21
f 68/13/68 3/1/3 5/4/5 61/37/61
f 43/8/43 15/7/15 16/38/16 44/39/44
f 70/40/70 50/41/50 71/42/71 75/43/75
f 45/44/45 74/45/74 73/46/73 46/47/46
f 46/47/46 73/46/73 23/48/23 47/49/47
f 47/49/47 23/48/23 24/22/24 48/20/48
f 18/50/18 22/5/22 43/8/43 37/51/37
f 37/51/37 43/8/43 44/39/44 38/52/38
f 60/53/60 51/54/51 74/45/74 45/44/45
f 39/55/39 45/44/45 46/47/46 40/56/40
f 40/56/40 46/47/46 47/49/47 41/57/41
f 41/57/41 47/49/47 48/20/48 42/15/42
f 14/58/14 18/50/18 37/51/37 31/59/31
f 31/59/31 37/51/37 38/52/38 32/60/32
f 58/61/58 60/53/60 45/44/45 39/55/39
f 33/62/33 39/55/39 40/56/40 34/63/34
f 34/63/34 40/56/40 41/57/41 35/64/35
f 35/64/35 41/57/41 42/15/42 36/14/36
f 10/65/10 14/66/14 31/67/31 25/68/25
f 25/68/25 31/67/31 32/69/32 26/70/26
f 56/71/56 58/61/58 39/55/39 33/62/33
f 27/72/27 33/73/33 34/74/34 28/75/28
f 28/75/28 34/74/34 35/76/35 29/77/29
f 29/77/29 35/76/35 36/9/36 30/2/30
f 6/25/6 10/65/10 25/68/25 12/26/12
f 12/26/12 25/68/25 26/70/26 11/28/11
f 54/78/54 56/79/56 33/73/33 27/72/27
f 71/42/71 27/72/27 28/75/28 72/19/72
f 72/19/72 28/75/28 29/77/29 4/12/4
f 4/12/4 29/77/29 30/2/30 3/1/3
f 11/28/11 26/70/26 53/80/53 49/81/49
f 49/81/49 53/80/53 54/78/54 50/41/50
f 26/70/26 32/69/32 55/82/55 53/80/53
f 53/80/53 55/82/55 56/79/56 54/78/54
f 32/60/32 38/52/38 57/83/57 55/84/55
f 55/84/55 57/83/57 58/61/58 56/71/56
f 38/52/38 44/39/44 59/85/59 57/83/57
f 57/83/57 59/85/59 60/53/60 58/61/58
f 44/39/44 16/38/16 52/86/52 59/85/59
f 59/85/59 52/86/52 51/54/51 60/53/60
f 64/29/64 11/28/11 49/81/49 69/87/69
f 69/87/69 49/81/49 50/41/50 70/40/70
f 52/86/52 69/87/69 70/40/70 51/54/51
f 16/38/16 64/29/64 69/87/69 52/86/52
f 24/22/24 68/13/68 61/37/61 1/23/1
f 15/7/15 63/27/63 64/29/64 16/38/16
f 2/6/2 62/24/62 63/27/63 15/7/15
f 50/41/50 54/78/54 27/72/27 71/42/71
f 73/46/73 76/18/76 67/11/67 23/48/23
f 23/48/23 67/11/67 68/13/68 24/22/24
f 7/88/7 8/89/8 71/42/71 72/19/72
f 19/90/19 20/91/20 73/46/73 74/45/74
f 65/92/65 19/90/19 74/45/74 75/43/75
f 20/91/20 66/93/66 76/18/76 73/46/73
f 8/89/8 65/92/65 75/43/75 71/42/71
f 66/93/66 7/88/7 72/19/72 76/18/76
f 51/54/51 70/40/70 75/43/75 74/45/74
